<svg xmlns="http://www.w3.org/2000/svg" xmlns:xlink="http://www.w3.org/1999/xlink" width="1080" zoomAndPan="magnify" viewBox="0 0 810 809.999993" height="1080" preserveAspectRatio="xMidYMid meet" version="1.0"><path fill="#ffffff" d="M 25.109375 352.480469 C 25.109375 343.027344 26.59375 334.667969 29.566406 327.402344 C 32.53125 320.136719 36.585938 314.046875 41.738281 309.136719 C 46.890625 304.226562 52.941406 300.5 59.914062 297.957031 C 66.882812 295.414062 74.421875 294.144531 82.539062 294.144531 C 90.65625 294.144531 98.195312 295.414062 105.164062 297.957031 C 112.128906 300.503906 118.210938 304.226562 123.429688 309.136719 C 128.636719 314.046875 132.726562 320.136719 135.691406 327.402344 C 138.65625 334.667969 140.144531 343.027344 140.144531 352.480469 C 140.144531 361.933594 138.6875 370.316406 135.78125 377.644531 C 132.871094 384.976562 128.847656 391.09375 123.695312 396 C 118.542969 400.910156 112.460938 404.628906 105.429688 407.179688 C 98.398438 409.722656 90.769531 410.992188 82.53125 410.992188 C 74.292969 410.992188 66.65625 409.699219 59.632812 407.089844 C 52.601562 404.480469 46.550781 400.699219 41.457031 395.734375 C 36.367188 390.769531 32.367188 384.644531 29.460938 377.371094 C 26.550781 370.105469 25.101562 361.8125 25.101562 352.480469 Z M 45.828125 270.523438 C 45.828125 266.289062 47.34375 262.617188 50.375 259.53125 C 53.402344 256.445312 57.152344 254.898438 61.640625 254.898438 C 66.726562 254.898438 70.730469 256.445312 73.636719 259.53125 C 76.546875 262.617188 77.996094 266.289062 77.996094 270.523438 C 77.996094 274.761719 76.546875 278.429688 73.636719 281.523438 C 70.730469 284.609375 66.726562 286.15625 61.640625 286.15625 C 59.460938 286.15625 57.398438 285.734375 55.460938 284.886719 C 53.523438 284.042969 51.824219 282.917969 50.375 281.523438 C 48.925781 280.128906 47.796875 278.496094 47.011719 276.613281 C 46.226562 274.734375 45.828125 272.703125 45.828125 270.523438 Z M 57.816406 352.480469 C 57.816406 363.503906 60.0625 371.742188 64.539062 377.191406 C 69.019531 382.644531 75.015625 385.367188 82.53125 385.367188 C 90.046875 385.367188 96.21875 382.636719 100.707031 377.191406 C 105.1875 371.742188 107.429688 363.503906 107.429688 352.480469 C 107.429688 341.457031 105.21875 333.394531 100.796875 327.945312 C 96.375 322.492188 90.347656 319.773438 82.71875 319.773438 C 75.085938 319.773438 69.183594 322.46875 64.636719 327.855469 C 60.09375 333.25 57.824219 341.457031 57.824219 352.480469 Z M 86.53125 270.523438 C 86.53125 266.289062 87.957031 262.617188 90.800781 259.53125 C 93.644531 256.445312 97.613281 254.898438 102.707031 254.898438 C 105.007812 254.898438 107.128906 255.328125 109.066406 256.171875 C 111.003906 257.019531 112.703125 258.171875 114.152344 259.621094 C 115.601562 261.078125 116.730469 262.738281 117.515625 264.617188 C 118.300781 266.5 118.699219 268.464844 118.699219 270.523438 C 118.699219 274.769531 117.183594 278.429688 114.152344 281.523438 C 111.125 284.609375 107.308594 286.15625 102.707031 286.15625 C 97.621094 286.15625 93.652344 284.609375 90.800781 281.523438 C 87.949219 278.4375 86.53125 274.769531 86.53125 270.523438 Z M 86.53125 270.523438 " fill-opacity="1" fill-rule="nonzero"/><path fill="#ffffff" d="M 159.035156 407.722656 C 157.097656 406.027344 155.550781 404.027344 154.402344 401.726562 C 153.253906 399.425781 152.675781 396.820312 152.675781 393.910156 C 152.675781 391.488281 153.253906 389.089844 154.402344 386.734375 C 155.550781 384.378906 156.96875 382.167969 158.671875 380.101562 L 189.929688 343.390625 L 156.492188 343.390625 C 155.761719 342.0625 155.066406 340.363281 154.402344 338.304688 C 153.738281 336.246094 153.398438 334.003906 153.398438 331.582031 C 153.398438 327.335938 154.335938 324.285156 156.214844 322.40625 C 158.097656 320.523438 160.605469 319.585938 163.757812 319.585938 L 221 319.585938 C 222.9375 321.285156 224.484375 323.277344 225.632812 325.578125 C 226.785156 327.878906 227.359375 330.488281 227.359375 333.394531 C 227.359375 335.816406 226.785156 338.214844 225.632812 340.574219 C 224.484375 342.9375 223.058594 345.148438 221.363281 347.207031 L 190.835938 383.914062 L 226.453125 383.914062 C 227.179688 385.253906 227.878906 386.945312 228.542969 389.003906 C 229.207031 391.066406 229.539062 393.304688 229.539062 395.726562 C 229.539062 399.96875 228.597656 403.023438 226.71875 404.902344 C 224.839844 406.78125 222.328125 407.722656 219.179688 407.722656 L 159.027344 407.722656 Z M 159.035156 407.722656 " fill-opacity="1" fill-rule="nonzero"/><path fill="#ffffff" d="M 274.25 377.371094 C 274.25 380.523438 275.253906 382.765625 277.246094 384.09375 C 279.246094 385.429688 282.066406 386.09375 285.695312 386.09375 C 287.507812 386.09375 289.390625 385.941406 291.332031 385.640625 C 293.269531 385.339844 294.96875 384.953125 296.417969 384.457031 C 297.511719 385.796875 298.445312 387.277344 299.238281 388.914062 C 300.023438 390.550781 300.421875 392.519531 300.421875 394.816406 C 300.421875 399.425781 298.695312 403.175781 295.246094 406.085938 C 291.792969 408.992188 285.703125 410.441406 276.980469 410.441406 C 266.320312 410.441406 258.105469 408.019531 252.355469 403.175781 C 246.597656 398.332031 243.722656 390.460938 243.722656 379.550781 L 243.722656 301.773438 C 245.050781 301.410156 246.960938 301.019531 249.449219 300.589844 C 251.925781 300.167969 254.566406 299.949219 257.351562 299.949219 C 262.683594 299.949219 266.832031 300.890625 269.804688 302.769531 C 272.765625 304.648438 274.257812 308.617188 274.257812 314.675781 L 274.257812 326.308594 L 298.0625 326.308594 C 298.792969 327.644531 299.488281 329.304688 300.152344 331.304688 C 300.816406 333.308594 301.148438 335.519531 301.148438 337.941406 C 301.148438 342.183594 300.210938 345.238281 298.332031 347.117188 C 296.453125 348.996094 293.933594 349.9375 290.789062 349.9375 L 274.25 349.9375 Z M 274.25 377.371094 " fill-opacity="1" fill-rule="nonzero"/><path fill="#ffffff" d="M 406.359375 363.558594 C 406.359375 371.078125 405.210938 377.769531 402.910156 383.640625 C 400.609375 389.511719 397.371094 394.453125 393.191406 398.445312 C 389.011719 402.449219 384.011719 405.476562 378.195312 407.535156 C 372.382812 409.59375 365.902344 410.621094 358.757812 410.621094 C 351.613281 410.621094 345.125 409.535156 339.308594 407.347656 C 333.492188 405.171875 328.496094 402.050781 324.316406 397.992188 C 320.136719 393.933594 316.894531 388.996094 314.597656 383.1875 C 312.296875 377.363281 311.144531 370.824219 311.144531 363.558594 C 311.144531 356.292969 312.296875 349.929688 314.597656 344.121094 C 316.894531 338.304688 320.136719 333.371094 324.316406 329.3125 C 328.496094 325.253906 333.492188 322.136719 339.308594 319.957031 C 345.125 317.777344 351.605469 316.6875 358.757812 316.6875 C 365.910156 316.6875 372.390625 317.8125 378.195312 320.046875 C 384.011719 322.289062 389.011719 325.433594 393.191406 329.492188 C 397.371094 333.550781 400.609375 338.492188 402.910156 344.308594 C 405.210938 350.121094 406.359375 356.546875 406.359375 363.570312 Z M 342.757812 363.558594 C 342.757812 370.957031 344.183594 376.617188 347.027344 380.554688 C 349.871094 384.492188 353.839844 386.449219 358.925781 386.449219 C 364.015625 386.449219 367.925781 384.457031 370.648438 380.457031 C 373.378906 376.457031 374.738281 370.824219 374.738281 363.550781 C 374.738281 356.277344 373.34375 350.679688 370.558594 346.746094 C 367.773438 342.808594 363.835938 340.839844 358.75 340.839844 C 353.664062 340.839844 349.71875 342.808594 346.9375 346.746094 C 344.152344 350.679688 342.757812 356.285156 342.757812 363.550781 Z M 342.757812 363.558594 " fill-opacity="1" fill-rule="nonzero"/><path fill="#ffffff" d="M 461.96875 316.675781 C 469.234375 316.675781 475.988281 317.617188 482.226562 319.496094 C 488.460938 321.375 493.824219 324.25 498.3125 328.132812 C 502.792969 332.011719 506.308594 336.886719 508.851562 342.757812 C 511.394531 348.632812 512.664062 355.628906 512.664062 363.746094 C 512.664062 371.863281 511.570312 378.285156 509.394531 384.101562 C 507.214844 389.917969 504.121094 394.792969 500.125 398.730469 C 496.125 402.667969 491.3125 405.609375 485.683594 407.542969 C 480.046875 409.480469 473.777344 410.453125 466.875 410.453125 C 461.667969 410.453125 456.816406 409.664062 452.335938 408.09375 L 452.335938 438.257812 C 451.121094 438.625 449.1875 439.019531 446.519531 439.441406 C 443.855469 439.863281 441.125 440.074219 438.339844 440.074219 C 435.554688 440.074219 433.277344 439.894531 431.164062 439.53125 C 429.039062 439.164062 427.25 438.4375 425.800781 437.351562 C 424.351562 436.265625 423.257812 434.777344 422.527344 432.90625 C 421.800781 431.023438 421.441406 428.570312 421.441406 425.542969 L 421.441406 338.3125 C 421.441406 335.039062 422.140625 332.375 423.53125 330.316406 C 424.925781 328.261719 426.828125 326.382812 429.257812 324.6875 C 433.019531 322.265625 437.683594 320.324219 443.257812 318.871094 C 448.828125 317.421875 455.066406 316.695312 461.976562 316.695312 Z M 462.332031 386.101562 C 474.804688 386.101562 481.050781 378.652344 481.050781 363.746094 C 481.050781 355.996094 479.503906 350.234375 476.417969 346.484375 C 473.332031 342.734375 468.875 340.847656 463.0625 340.847656 C 460.753906 340.847656 458.695312 341.125 456.878906 341.667969 C 455.066406 342.207031 453.488281 342.847656 452.160156 343.578125 L 452.160156 383.558594 C 453.617188 384.28125 455.1875 384.886719 456.878906 385.375 C 458.574219 385.859375 460.394531 386.101562 462.332031 386.101562 Z M 462.332031 386.101562 " fill-opacity="1" fill-rule="nonzero"/><path fill="#ffffff" d="M 558.640625 407.542969 C 557.433594 407.90625 555.523438 408.273438 552.914062 408.636719 C 550.304688 409 547.617188 409.179688 544.832031 409.179688 C 542.042969 409.179688 539.777344 409 537.652344 408.636719 C 535.53125 408.273438 533.75 407.542969 532.292969 406.457031 C 530.832031 405.363281 529.714844 403.882812 528.929688 402.011719 C 528.136719 400.132812 527.746094 397.675781 527.746094 394.648438 L 527.746094 340.128906 C 527.746094 337.339844 528.265625 334.953125 529.292969 332.949219 C 530.324219 330.949219 531.804688 329.167969 533.75 327.589844 C 535.683594 326.015625 538.082031 324.589844 540.925781 323.320312 C 543.769531 322.046875 546.824219 320.929688 550.101562 319.957031 C 553.367188 318.984375 556.761719 318.234375 560.277344 317.691406 C 563.785156 317.148438 567.300781 316.871094 570.808594 316.871094 C 576.632812 316.871094 581.230469 317.996094 584.625 320.234375 C 588.011719 322.476562 589.710938 326.136719 589.710938 331.226562 C 589.710938 332.925781 589.46875 334.585938 588.984375 336.222656 C 588.503906 337.859375 587.898438 339.339844 587.175781 340.679688 C 584.632812 340.679688 582.027344 340.800781 579.359375 341.042969 C 576.695312 341.285156 574.085938 341.648438 571.542969 342.136719 C 569.007812 342.621094 566.609375 343.132812 564.367188 343.683594 C 562.132812 344.226562 560.21875 344.867188 558.640625 345.59375 L 558.640625 407.558594 Z M 558.640625 407.542969 " fill-opacity="1" fill-rule="nonzero"/><path fill="#ffffff" d="M 636.0625 316.675781 C 642.597656 316.675781 648.566406 317.34375 653.960938 318.679688 C 659.347656 320.015625 663.957031 322.039062 667.773438 324.769531 C 671.59375 327.492188 674.527344 330.949219 676.585938 335.128906 C 678.640625 339.308594 679.671875 344.25 679.671875 349.9375 L 679.671875 390.648438 C 679.671875 393.796875 678.796875 396.375 677.039062 398.375 C 675.28125 400.367188 673.191406 402.101562 670.769531 403.550781 C 662.894531 408.273438 651.808594 410.636719 637.519531 410.636719 C 631.09375 410.636719 625.3125 410.03125 620.160156 408.824219 C 615.007812 407.609375 610.585938 405.792969 606.890625 403.371094 C 603.199219 400.949219 600.347656 397.863281 598.355469 394.105469 C 596.355469 390.355469 595.359375 385.988281 595.359375 381.023438 C 595.359375 372.664062 597.835938 366.242188 602.808594 361.761719 C 607.777344 357.28125 615.46875 354.496094 625.886719 353.402344 L 649.691406 350.859375 L 649.691406 349.589844 C 649.691406 346.074219 648.144531 343.5625 645.058594 342.046875 C 641.972656 340.53125 637.519531 339.777344 631.703125 339.777344 C 627.09375 339.777344 622.613281 340.265625 618.257812 341.230469 C 613.898438 342.199219 609.953125 343.40625 606.4375 344.867188 C 604.867188 343.773438 603.53125 342.113281 602.4375 339.867188 C 601.351562 337.625 600.800781 335.300781 600.800781 332.871094 C 600.800781 329.71875 601.554688 327.207031 603.070312 325.328125 C 604.585938 323.449219 606.910156 321.84375 610.066406 320.507812 C 613.574219 319.179688 617.722656 318.207031 622.507812 317.601562 C 627.296875 316.992188 631.808594 316.695312 636.050781 316.695312 Z M 637.511719 388.101562 C 639.566406 388.101562 641.84375 387.894531 644.324219 387.464844 C 646.800781 387.035156 648.65625 386.460938 649.863281 385.738281 L 649.863281 371.199219 L 636.78125 372.292969 C 633.386719 372.535156 630.601562 373.257812 628.421875 374.472656 C 626.242188 375.679688 625.148438 377.5 625.148438 379.921875 C 625.148438 382.34375 626.089844 384.3125 627.96875 385.835938 C 629.847656 387.351562 633.023438 388.101562 637.511719 388.101562 Z M 637.511719 388.101562 " fill-opacity="1" fill-rule="nonzero"/><path fill="#ffffff" d="M 784.890625 391.730469 C 784.28125 397.425781 782.621094 401.792969 779.890625 404.820312 C 777.164062 407.851562 773.195312 409.367188 767.984375 409.367188 C 764.105469 409.367188 760.65625 408.425781 757.625 406.546875 C 754.597656 404.667969 751.324219 401.492188 747.808594 397.003906 L 729.816406 374.480469 L 729.816406 407.550781 C 728.480469 407.792969 726.511719 408.125 723.914062 408.546875 C 721.304688 408.976562 718.671875 409.1875 716.007812 409.1875 C 713.34375 409.1875 710.953125 409.007812 708.832031 408.644531 C 706.707031 408.28125 704.925781 407.550781 703.46875 406.464844 C 702.011719 405.371094 700.894531 403.890625 700.105469 402.019531 C 699.320312 400.140625 698.925781 397.6875 698.925781 394.65625 L 698.925781 289.4375 C 700.253906 289.074219 702.230469 288.683594 704.828125 288.253906 C 707.4375 287.832031 710.070312 287.613281 712.734375 287.613281 C 715.398438 287.613281 717.789062 287.792969 719.910156 288.15625 C 722.027344 288.523438 723.816406 289.242188 725.273438 290.335938 C 726.730469 291.421875 727.851562 292.914062 728.636719 294.792969 C 729.421875 296.671875 729.816406 299.125 729.816406 302.144531 L 729.816406 350.121094 L 761.074219 318.136719 C 767.378906 318.136719 772.433594 319.527344 776.246094 322.316406 C 780.0625 325.101562 781.972656 328.617188 781.972656 332.851562 C 781.972656 334.667969 781.667969 336.335938 781.066406 337.851562 C 780.460938 339.367188 779.519531 340.914062 778.25 342.484375 C 776.976562 344.054688 775.339844 345.722656 773.339844 347.480469 C 771.339844 349.238281 769.007812 351.265625 766.339844 353.566406 L 755.804688 362.652344 L 784.882812 391.722656 Z M 784.890625 391.730469 " fill-opacity="1" fill-rule="nonzero"/><path fill="#ff0000" d="M 84.003906 553.398438 C 83.082031 552.507812 82.621094 551.40625 82.621094 550.113281 L 82.621094 488.820312 C 82.621094 485.402344 83.285156 482.136719 84.589844 479.042969 C 85.917969 475.949219 87.722656 473.242188 90.03125 470.925781 C 92.339844 468.609375 95.101562 466.746094 98.171875 465.449219 C 101.25 464.15625 104.5 463.507812 107.917969 463.507812 C 112.078125 463.507812 115.917969 464.460938 119.46875 466.382812 C 123 468.300781 125.996094 470.925781 128.441406 474.253906 C 130.886719 470.925781 133.886719 468.300781 137.417969 466.382812 C 140.964844 464.460938 144.804688 463.507812 148.96875 463.507812 C 152.433594 463.507812 155.722656 464.164062 158.847656 465.484375 C 161.960938 466.804688 164.679688 468.617188 166.988281 470.925781 C 169.296875 473.234375 171.105469 475.941406 172.402344 479.042969 C 173.695312 482.136719 174.34375 485.402344 174.34375 488.820312 L 174.34375 550.113281 C 174.34375 551.40625 173.882812 552.507812 172.960938 553.398438 C 172.035156 554.308594 170.925781 554.753906 169.628906 554.753906 C 168.335938 554.753906 167.144531 554.308594 166.203125 553.398438 C 165.25 552.507812 164.777344 551.40625 164.777344 550.113281 L 164.777344 489.167969 C 164.777344 486.996094 164.375 484.945312 163.570312 483.027344 C 162.753906 481.109375 161.609375 479.40625 160.136719 477.933594 C 158.703125 476.5 157.019531 475.382812 155.074219 474.570312 C 153.128906 473.761719 151.074219 473.355469 148.902344 473.355469 C 146.730469 473.355469 144.699219 473.769531 142.804688 474.601562 C 140.90625 475.4375 139.246094 476.585938 137.8125 478.070312 C 136.429688 479.503906 135.328125 481.1875 134.515625 483.132812 C 133.707031 485.078125 133.308594 487.085938 133.308594 489.167969 L 133.308594 550.046875 C 133.308594 551.34375 132.832031 552.453125 131.882812 553.375 C 130.9375 554.300781 129.792969 554.761719 128.457031 554.761719 C 127.121094 554.761719 126.003906 554.300781 125.089844 553.375 C 124.199219 552.453125 123.742188 551.34375 123.742188 550.046875 L 123.742188 489.101562 C 123.742188 487.019531 123.332031 485.019531 122.496094 483.109375 C 121.660156 481.195312 120.527344 479.511719 119.101562 478.078125 C 117.675781 476.644531 115.917969 475.445312 114 474.609375 C 112.078125 473.777344 110.0625 473.363281 107.933594 473.363281 C 105.800781 473.363281 103.769531 473.761719 101.832031 474.546875 C 99.890625 475.332031 98.203125 476.441406 96.769531 477.875 C 95.289062 479.359375 94.144531 481.050781 93.335938 482.96875 C 92.527344 484.890625 92.128906 486.929688 92.128906 489.109375 L 92.128906 550.128906 C 92.128906 551.421875 91.667969 552.523438 90.746094 553.417969 C 89.820312 554.324219 88.710938 554.769531 87.414062 554.769531 C 86.121094 554.769531 84.945312 554.324219 84.019531 553.417969 Z M 84.003906 553.398438 " fill-opacity="1" fill-rule="nonzero"/><path fill="#ff0000" d="M 255.167969 553.261719 C 254.355469 552.371094 253.960938 551.292969 253.960938 550.039062 L 253.960938 467.945312 C 253.960938 466.609375 254.421875 465.5 255.34375 464.617188 C 256.269531 463.742188 257.378906 463.296875 258.671875 463.296875 L 305.199219 463.296875 C 306.496094 463.296875 307.582031 463.734375 308.457031 464.617188 C 309.332031 465.5 309.777344 466.601562 309.777344 467.945312 C 309.777344 469.289062 309.339844 470.335938 308.457031 471.242188 C 307.574219 472.148438 306.488281 472.59375 305.199219 472.59375 L 263.25 472.59375 L 263.25 503.796875 L 293.480469 503.796875 C 294.816406 503.796875 295.925781 504.226562 296.808594 505.074219 C 297.683594 505.941406 298.128906 507.011719 298.128906 508.308594 C 298.128906 509.601562 297.691406 510.671875 296.808594 511.539062 C 295.933594 512.390625 294.824219 512.820312 293.480469 512.820312 L 263.25 512.820312 L 263.25 545.542969 L 305.199219 545.542969 C 306.496094 545.542969 307.582031 545.996094 308.457031 546.886719 C 309.332031 547.796875 309.777344 548.863281 309.777344 550.121094 C 309.777344 551.503906 309.339844 552.628906 308.457031 553.488281 C 307.582031 554.347656 306.488281 554.769531 305.199219 554.769531 L 258.261719 554.769531 C 257.011719 554.679688 255.976562 554.1875 255.175781 553.269531 Z M 255.167969 553.261719 " fill-opacity="1" fill-rule="nonzero"/><path fill="#ff0000" d="M 385.792969 553.441406 C 384.902344 552.566406 384.449219 551.472656 384.449219 550.183594 L 384.449219 468.019531 C 384.449219 466.679688 384.886719 465.578125 385.769531 464.722656 C 386.652344 463.863281 387.738281 463.441406 389.027344 463.441406 L 415.652344 463.441406 C 420.277344 463.441406 424.59375 464.234375 428.621094 465.832031 C 432.636719 467.425781 436.128906 469.679688 439.09375 472.59375 C 442.007812 475.460938 444.277344 478.90625 445.929688 482.921875 C 447.566406 486.941406 448.382812 491.175781 448.382812 495.613281 L 448.382812 523 C 448.382812 527.390625 447.574219 531.53125 445.953125 535.410156 C 444.332031 539.289062 442.050781 542.667969 439.09375 545.535156 C 436.136719 548.449219 432.644531 550.710938 428.621094 552.332031 C 424.601562 553.949219 420.277344 554.761719 415.652344 554.761719 L 389.027344 554.761719 C 387.78125 554.761719 386.710938 554.324219 385.796875 553.441406 Z M 415.652344 545.535156 C 419.070312 545.535156 422.238281 544.960938 425.152344 543.800781 C 428.070312 542.644531 430.589844 541.03125 432.710938 538.949219 C 434.792969 536.917969 436.371094 534.550781 437.464844 531.839844 C 438.542969 529.140625 439.09375 526.214844 439.09375 523.074219 L 439.09375 495.550781 C 439.09375 492.457031 438.542969 489.476562 437.433594 486.609375 C 436.324219 483.738281 434.75 481.292969 432.71875 479.261719 C 430.589844 477.179688 428.078125 475.574219 425.191406 474.441406 C 422.308594 473.308594 419.125 472.742188 415.660156 472.742188 L 393.75 472.742188 L 393.75 545.542969 L 415.660156 545.542969 Z M 415.652344 545.535156 " fill-opacity="1" fill-rule="nonzero"/><path fill="#ff0000" d="M 550.898438 553.398438 C 550.007812 552.507812 549.550781 551.382812 549.550781 550.039062 L 549.550781 520.636719 C 545.714844 520.175781 542.109375 519.039062 538.738281 517.242188 C 535.363281 515.433594 532.429688 513.125 529.933594 510.308594 C 527.390625 507.488281 525.414062 504.28125 524.003906 500.710938 C 522.597656 497.121094 521.851562 493.347656 521.753906 489.371094 L 521.753906 468.011719 C 521.753906 466.671875 522.214844 465.5625 523.136719 464.679688 C 524.0625 463.796875 525.171875 463.359375 526.46875 463.359375 C 527.761719 463.359375 528.90625 463.796875 529.765625 464.679688 C 530.613281 465.554688 531.042969 466.664062 531.042969 468.011719 L 531.042969 488.882812 C 531.042969 491.976562 531.601562 494.933594 532.738281 497.722656 C 533.871094 500.523438 535.457031 502.984375 537.492188 505.109375 C 539.574219 507.277344 541.972656 508.972656 544.667969 510.171875 C 547.382812 511.371094 550.273438 511.976562 553.375 511.976562 C 556.476562 511.976562 559.441406 511.394531 562.140625 510.203125 C 564.855469 509.027344 567.21875 507.375 569.25 505.246094 C 571.238281 503.117188 572.792969 500.660156 573.902344 497.859375 C 575.011719 495.070312 575.5625 492.074219 575.5625 488.882812 L 575.5625 468.011719 C 575.5625 466.671875 576.007812 465.5625 576.914062 464.679688 C 577.804688 463.804688 578.90625 463.359375 580.203125 463.359375 C 581.5 463.359375 582.640625 463.796875 583.492188 464.679688 C 584.351562 465.554688 584.78125 466.664062 584.78125 468.011719 L 584.78125 488.460938 C 584.78125 492.441406 584.15625 496.238281 582.910156 499.875 C 581.660156 503.496094 579.878906 506.726562 577.570312 509.546875 C 575.261719 512.367188 572.492188 514.722656 569.292969 516.617188 C 566.070312 518.511719 562.59375 519.785156 558.851562 520.433594 L 558.851562 550.039062 C 558.851562 551.375 558.398438 552.5 557.507812 553.398438 C 556.601562 554.308594 555.53125 554.753906 554.273438 554.753906 C 552.9375 554.753906 551.820312 554.308594 550.90625 553.398438 Z M 550.898438 553.398438 " fill-opacity="1" fill-rule="nonzero"/><path fill="#ff0000" d="M 662.570312 553.757812 C 661.648438 552.847656 661.1875 551.730469 661.1875 550.386719 L 661.1875 496.578125 C 661.1875 492.1875 661.898438 487.984375 663.332031 483.957031 C 664.765625 479.941406 666.847656 476.402344 669.570312 473.347656 C 672.4375 470.15625 675.855469 467.667969 679.832031 465.894531 C 683.808594 464.121094 688.25 463.222656 693.148438 463.222656 C 698.050781 463.222656 702.949219 464.136719 707.152344 465.960938 C 711.359375 467.78125 714.921875 470.320312 717.828125 473.550781 C 720.648438 476.691406 722.804688 480.371094 724.308594 484.574219 C 725.808594 488.777344 726.570312 493.191406 726.570312 497.816406 L 726.570312 550.378906 C 726.570312 551.714844 726.09375 552.832031 725.144531 553.75 C 724.195312 554.640625 723.078125 555.09375 721.78125 555.09375 C 720.488281 555.09375 719.3125 554.640625 718.390625 553.75 C 717.464844 552.839844 717.003906 551.722656 717.003906 550.378906 L 717.003906 526.734375 L 670.753906 526.734375 L 670.753906 550.378906 C 670.753906 551.714844 670.273438 552.832031 669.335938 553.75 C 668.378906 554.640625 667.261719 555.09375 665.964844 555.09375 C 664.667969 555.09375 663.496094 554.640625 662.570312 553.75 Z M 717.003906 517.25 L 717.003906 498.109375 C 717.003906 494.503906 716.429688 491.128906 715.269531 487.984375 C 714.113281 484.839844 712.5 482.136719 710.417969 479.867188 C 708.246094 477.558594 705.703125 475.769531 702.789062 474.496094 C 699.871094 473.226562 696.730469 472.59375 693.359375 472.59375 C 689.992188 472.59375 686.96875 473.1875 684.175781 474.359375 C 681.371094 475.542969 678.984375 477.234375 676.996094 479.457031 C 675.011719 481.675781 673.464844 484.300781 672.390625 487.328125 C 671.296875 490.359375 670.753906 493.671875 670.753906 497.273438 L 670.753906 517.242188 L 717.003906 517.242188 Z M 717.003906 517.25 " fill-opacity="1" fill-rule="nonzero"/></svg>